<mxfile host="Electron" agent="Mozilla/5.0 (Windows NT 10.0; Win64; x64) AppleWebKit/537.36 (KHTML, like Gecko) draw.io/24.7.17 Chrome/128.0.6613.36 Electron/32.0.1 Safari/537.36" version="24.7.17">
  <diagram name="Page-1" id="oCbD8YhVFHW1toGFkb9Y">
    <mxGraphModel dx="3774" dy="2297" grid="1" gridSize="10" guides="1" tooltips="1" connect="1" arrows="1" fold="1" page="1" pageScale="1" pageWidth="850" pageHeight="1100" math="0" shadow="0">
      <root>
        <mxCell id="0" />
        <mxCell id="1" parent="0" />
        <mxCell id="RI93_O1eQcjazl_2RRRJ-1" value="Question" style="rounded=1;arcSize=10;whiteSpace=wrap;html=1;align=center;container=1;" vertex="1" collapsed="1" parent="1">
          <mxGeometry x="-1630" y="-755" width="90" height="30" as="geometry">
            <mxRectangle x="-1640" y="-755" width="200" height="165" as="alternateBounds" />
          </mxGeometry>
        </mxCell>
        <mxCell id="RI93_O1eQcjazl_2RRRJ-2" value="CourseId&lt;div&gt;UserId&lt;/div&gt;" style="shape=note;size=20;whiteSpace=wrap;html=1;collapsible=0;" vertex="1" collapsed="1" parent="RI93_O1eQcjazl_2RRRJ-1">
          <mxGeometry x="50" y="105" width="130" height="45" as="geometry">
            <mxRectangle x="-1780" y="-774" width="190" height="134" as="alternateBounds" />
          </mxGeometry>
        </mxCell>
        <mxCell id="RI93_O1eQcjazl_2RRRJ-3" value="Answer" style="rounded=1;arcSize=10;whiteSpace=wrap;html=1;align=center;container=1;" vertex="1" collapsed="1" parent="1">
          <mxGeometry x="-1400" y="-755" width="80" height="30" as="geometry">
            <mxRectangle x="-1360" y="-760" width="290" height="170" as="alternateBounds" />
          </mxGeometry>
        </mxCell>
        <mxCell id="RI93_O1eQcjazl_2RRRJ-4" value="UserId" style="shape=note;size=20;whiteSpace=wrap;html=1;" vertex="1" parent="RI93_O1eQcjazl_2RRRJ-3">
          <mxGeometry x="180" y="100" width="85" height="50" as="geometry" />
        </mxCell>
        <mxCell id="RI93_O1eQcjazl_2RRRJ-5" value="Have" style="shape=rhombus;perimeter=rhombusPerimeter;whiteSpace=wrap;html=1;align=center;" vertex="1" parent="1">
          <mxGeometry x="-1505" y="-770" width="70" height="60" as="geometry" />
        </mxCell>
        <mxCell id="RI93_O1eQcjazl_2RRRJ-6" value="" style="endArrow=none;html=1;rounded=0;" edge="1" parent="1" source="RI93_O1eQcjazl_2RRRJ-3" target="RI93_O1eQcjazl_2RRRJ-5">
          <mxGeometry relative="1" as="geometry">
            <mxPoint x="-1596.82" y="-528.5" as="sourcePoint" />
            <mxPoint x="-1436.82" y="-528.5" as="targetPoint" />
          </mxGeometry>
        </mxCell>
        <mxCell id="RI93_O1eQcjazl_2RRRJ-7" value="N" style="resizable=0;html=1;whiteSpace=wrap;align=right;verticalAlign=bottom;" connectable="0" vertex="1" parent="RI93_O1eQcjazl_2RRRJ-6">
          <mxGeometry x="1" relative="1" as="geometry">
            <mxPoint x="7" as="offset" />
          </mxGeometry>
        </mxCell>
        <mxCell id="RI93_O1eQcjazl_2RRRJ-8" value="" style="endArrow=none;html=1;rounded=0;" edge="1" parent="1" source="RI93_O1eQcjazl_2RRRJ-1" target="RI93_O1eQcjazl_2RRRJ-5">
          <mxGeometry relative="1" as="geometry">
            <mxPoint x="-1600.001818181818" y="-700" as="sourcePoint" />
            <mxPoint x="-1416.82" y="-498.5" as="targetPoint" />
          </mxGeometry>
        </mxCell>
        <mxCell id="RI93_O1eQcjazl_2RRRJ-9" value="1" style="resizable=0;html=1;whiteSpace=wrap;align=right;verticalAlign=bottom;" connectable="0" vertex="1" parent="RI93_O1eQcjazl_2RRRJ-8">
          <mxGeometry x="1" relative="1" as="geometry">
            <mxPoint y="-2" as="offset" />
          </mxGeometry>
        </mxCell>
      </root>
    </mxGraphModel>
  </diagram>
</mxfile>
